{
  "asset": {
    "generator": "glTF-Transform v4.4.0",
    "version": "2.0"
  },
  "accessors": [
    {
      "type": "SCALAR",
      "componentType": 5123,
      "count": 1368,
      "bufferView": 0,
      "byteOffset": 0
    },
    {
      "type": "VEC3",
      "componentType": 5126,
      "count": 484,
      "max": [
        0.005000609904527664,
        0.009999999776482582,
        0.010000609792768955
      ],
      "min": [
        -0.004999999888241291,
        -0.009999999776482582,
        0
      ],
      "bufferView": 1,
      "byteOffset": 0
    },
    {
      "type": "VEC3",
      "componentType": 5126,
      "count": 484,
      "bufferView": 1,
      "byteOffset": 12
    },
    {
      "type": "VEC2",
      "componentType": 5126,
      "count": 484,
      "bufferView": 1,
      "byteOffset": 24
    }
  ],
  "bufferViews": [
    {
      "buffer": 0,
      "byteOffset": 0,
      "byteLength": 2736,
      "target": 34963
    },
    {
      "buffer": 0,
      "byteOffset": 2736,
      "byteLength": 15488,
      "byteStride": 32,
      "target": 34962
    }
  ],
  "buffers": [
    {
      "uri": "model_plain.bin",
      "byteLength": 18224
    }
  ],
  "materials": [
    {
      "pbrMetallicRoughness": {
        "baseColorFactor": [
          0.498039,
          0.498039,
          0.498039,
          1
        ],
        "metallicFactor": 0
      }
    },
    {
      "name": "color",
      "pbrMetallicRoughness": {
        "baseColorFactor": [
          0.18,
          0.55,
          1,
          1
        ],
        "roughnessFactor": 0.18,
        "metallicFactor": 0
      },
      "doubleSided": true
    }
  ],
  "meshes": [
    {
      "primitives": [
        {
          "attributes": {
            "POSITION": 1,
            "NORMAL": 2,
            "TEXCOORD_0": 3
          },
          "mode": 4,
          "material": 1,
          "indices": 0
        }
      ]
    }
  ],
  "cameras": [
    {
      "type": "orthographic",
      "orthographic": {
        "znear": 0.01,
        "zfar": 100,
        "xmag": 1,
        "ymag": 1
      }
    }
  ],
  "nodes": [
    {
      "name": "current",
      "translation": [
        -0.111523,
        -0.0974947,
        0.139666
      ],
      "rotation": [
        0.38103460946613893,
        -0.13999714063319468,
        -0.39015359605203503,
        0.8264342284446425
      ],
      "camera": 0
    },
    {
      "name": "测试件.SLDPRT",
      "mesh": 0
    }
  ],
  "scenes": [
    {
      "name": "默认 - <默认>_显示状态 1",
      "nodes": [
        0,
        1
      ]
    }
  ],
  "scene": 0,
  "extensionsUsed": [
    "KHR_lights_punctual"
  ]
}
